# xmcd
#
# Track frame offsets:
#	150
#	17343
#	35201
#	53237
#	71871
#	89064
#	106922
#	124958
#
# Disc length: 1914 seconds
#
# Revision: 0
# Processed by: cddbd v1.5PL3 Copyright (c) Steve Scherf et al.
# Submitted via: audiograbber 1.83.01
#
DISCID=71077808
DTITLE=Leann Rimes - Karaoke KBA28402
DYEAR=1900
DGENRE=
TTITLE0=Leann Rimes - Can't Fight The Moonlight
TTITLE1=Leann Rimes - I Need You
TTITLE2=Leann Rimes - How Do I Live (Dance Remix)
TTITLE3=Leann Rimes - Unchained Melody
TTITLE4=Leann Rimes (Vocal) - Can't Fight The Moonlight
TTITLE5=Leann Rimes (Vocal) - I Need You
TTITLE6=Leann Rimes (Vocal) - How Do I Live (Dance Remix)
TTITLE7=Leann Rimes (Vocal) - Unchained Melody
EXTD=
EXTT0=
EXTT1=
EXTT2=
EXTT3=
EXTT4=
EXTT5=
EXTT6=
EXTT7=
PLAYORDER=
